<svg width="512" height="512" fill="none" xmlns="http://www.w3.org/2000/svg"><rect width="512" height="512" rx="16" fill="#202425"/><path d="M387.812 391h-48.75v-66H167.688v66h-48.75V256.562c0-19.624 3.374-37.687 10.124-54.187s16.126-30.687 28.126-42.563c12-11.874 26.187-21.124 42.562-27.75 16.375-6.624 34.25-9.937 53.625-9.937H363.25c3.375 0 6.562.625 9.562 1.875 3 1.25 5.626 3 7.876 5.25s4 4.875 5.25 7.875 1.874 6.187 1.874 9.563V391ZM167.688 276.25h171.374V170.875h-85.687c-1.5 0-4.687.25-9.563.75-4.75.375-10.312 1.437-16.687 3.187-6.25 1.75-12.875 4.438-19.875 8.063-7 3.625-13.438 8.625-19.312 15-5.876 6.375-10.75 14.375-14.626 24-3.75 9.5-5.624 21.063-5.624 34.687v19.688Z" fill="#9BA1A6"/></svg>